<?xml version="1.0" encoding="utf-8"?>
<!-- Generator: Adobe Illustrator 16.0.0, SVG Export Plug-In . SVG Version: 6.00 Build 0)  -->

<svg x="0px" y="0px" width="70px" height="20px" viewBox="0 0 100.426 29.537"><polygon fill="#FFFFFF" points="0,23.63 0,17.723 0,11.814 0,5.907 0,0 5.907,0 11.814,0 17.723,0 23.63,0 23.63,5.907 17.723,5.907 11.814,5.907 5.907,5.907 5.907,11.814 11.814,11.814 17.723,11.814 23.63,11.814 23.63,17.723 23.63,23.63 17.723,23.63 17.723,17.723 11.814,17.723 5.907,17.723 5.907,23.63 5.907,29.537 0,29.537 	"/><rect x="23.63" y="5.907" fill="#F3C108" width="5.907" height="5.907"/><rect x="23.63" y="23.63" fill="#FFFFFF" width="5.907" height="5.907"/><polygon fill="#FFFFFF" points="59.074,17.723 59.074,23.63 64.981,23.63 64.981,17.723 64.981,11.814 59.074,11.814 	"/><polygon fill="#FFFFFF" points="47.259,23.63 41.352,23.63 41.352,17.723 41.352,11.814 41.352,5.907 47.259,5.907 53.167,5.907 59.074,5.907 59.074,0 53.167,0 47.259,0 41.352,0 35.444,0 35.444,5.907 35.444,11.814 35.444,17.723 35.444,23.63 35.444,29.537 41.352,29.537 47.259,29.537 53.167,29.537 59.074,29.537 59.074,23.63 53.167,23.63 	"/><rect x="59.074" y="5.907" fill="#11A122" width="5.907" height="5.907"/><rect x="94.519" y="5.907" fill="#FFFFFF" width="5.907" height="5.907"/><rect x="94.519" y="23.63" fill="#FFFFFF" width="5.907" height="5.907"/><polygon fill="#FFFFFF" points="94.519,11.814 88.611,11.814 82.703,11.814 76.796,11.814 76.796,5.907 82.703,5.907 88.611,5.907 94.519,5.907 94.519,0 88.611,0 82.703,0 76.796,0 70.889,0 70.889,5.907 70.889,11.814 70.889,17.723 70.889,23.63 70.889,29.537 76.796,29.537 76.796,23.63 76.796,17.723 82.703,17.723 88.611,17.723 94.519,17.723 	"/><rect x="88.611" y="17.723" fill="#FF8A00" width="5.907" height="5.907"/></svg>
