<?xml version="1.0" encoding="utf-8"?>
<!-- Generator: Adobe Illustrator 16.0.0, SVG Export Plug-In . SVG Version: 6.00 Build 0)  -->
<svg x="0px" y="0px" width="121.4px" height="116.425px" viewBox="0 0 121.4 116.425">
<path fill="#383838" d="M114.138,25.978c-1.049,0-1.899-0.851-1.899-1.9V17.52c0-4.994-2.529-9.563-6.766-12.22c-0.889-0.558-1.158-1.73-0.6-2.619c0.558-0.888,1.729-1.156,2.619-0.6c5.352,3.357,8.547,9.128,8.547,15.439v6.558C116.039,25.127,115.187,25.978,114.138,25.978z M84.329,38.57c-0.451,0.294-11.045,7.417-11.045,26.585c0,1.049,0.851,1.9,1.9,1.9c1.049,0,1.9-0.851,1.9-1.9c0-16.989,8.948-23.153,9.329-23.407c0.869-0.58,1.112-1.757,0.537-2.629C86.372,38.247,85.206,37.999,84.329,38.57z M1.9,0h93.085c1.049,0,1.899,0.851,1.899,1.9v9.564c0.309-0.03,0.622-0.047,0.94-0.047c5.28,0,9.575,4.295,9.575,9.575v6.171c0,5.28-4.295,9.575-9.575,9.575s-9.575-4.295-9.575-9.575v-6.171c0-3.555,1.952-6.658,4.836-8.309V3.8H3.8v73.633H65.31c1.049,0,1.9,0.851,1.9,1.9s-0.851,1.9-1.9,1.9H1.9c-1.049,0-1.9-0.851-1.9-1.9V1.9C0,0.851,0.851,0,1.9,0z M92.048,27.164c0,3.185,2.591,5.775,5.776,5.775c3.184,0,5.775-2.591,5.775-5.775v-6.171c0-3.185-2.591-5.775-5.775-5.775c-3.185,0-5.776,2.591-5.776,5.775V27.164z M82.175,8.997c0-1.049-0.85-1.9-1.9-1.9h-2.93c-1.05,0-1.9,0.851-1.9,1.9s0.851,1.9,1.9,1.9h2.93C81.325,10.897,82.175,10.046,82.175,8.997z M56.208,70.506H11.206V10.897h61.355c1.049,0,1.899-0.851,1.899-1.9s-0.85-1.9-1.899-1.9H9.306c-1.049,0-1.901,0.851-1.901,1.9v63.409c0,1.049,0.852,1.9,1.901,1.9h46.902c1.049,0,1.899-0.851,1.899-1.9S57.256,70.506,56.208,70.506z M26.585,24.319h43.97c1.05,0,1.9-0.851,1.9-1.9s-0.85-1.9-1.9-1.9h-43.97c-1.05,0-1.9,0.851-1.9,1.9S25.535,24.319,26.585,24.319z M46.487,34.559c-1.049,0-1.899,0.851-1.899,1.9s0.851,1.9,1.899,1.9h16.199c1.05,0,1.9-0.851,1.9-1.9s-0.851-1.9-1.9-1.9H46.487z M75.184,82.849c1.049,0,1.9,0.851,1.9,1.9v7.203h32.301v-12.44l-17.1,2.061c-0.047,0.064-0.091,0.13-0.147,0.189c-1.647,1.72-3.867,2.668-6.249,2.668c-4.771,0-8.652-3.881-8.652-8.652c0-0.383,0.034-0.757,0.082-1.127l-38.85-21.564c-0.918-0.509-1.249-1.666-0.739-2.583s1.666-1.249,2.583-0.739l38.341,21.282c1.547-2.357,4.211-3.92,7.235-3.92c1.98,0,3.863,0.665,5.389,1.885l14.732-2.784c1.049-0.199,1.754-1.188,1.606-2.253c-0.381-2.743-1.515-6.845-4.746-10.809c-0.663-0.813-0.543-2.01,0.271-2.673c0.813-0.663,2.01-0.542,2.674,0.272c3.786,4.645,5.116,9.463,5.564,12.688c0.427,3.075-1.622,5.934-4.664,6.51l-14.128,2.67v5.077l22.52-2.713c1.42-0.171,2.493-1.379,2.493-2.811v-2.169c0-23.14-12.184-27.861-12.734-28.062c-0.985-0.348-1.505-1.427-1.162-2.415c0.344-0.991,1.427-1.517,2.418-1.172c0.624,0.216,15.277,5.603,15.277,31.648v2.169c0,3.353-2.509,6.183-5.838,6.583l-2.377,0.287v14.798c0,0.042-0.009,0.081-0.013,0.122c-0.002,0.044,0.002,0.087-0.004,0.131l-2.776,20.673c-0.128,0.954-0.945,1.647-1.881,1.647c-0.084,0-0.17-0.006-0.255-0.017c-1.041-0.14-1.77-1.096-1.63-2.136l2.487-18.521H77.083v18.773c0,1.049-0.851,1.9-1.9,1.9c-1.049,0-1.9-0.851-1.9-1.9V93.852v-9.103C73.283,83.7,74.134,82.849,75.184,82.849z M81.037,75.777c0,2.675,2.177,4.852,4.853,4.852c1.066,0,2.066-0.352,2.9-0.98v-7.738c-0.836-0.629-1.838-0.986-2.9-0.986C83.213,70.925,81.037,73.102,81.037,75.777z M90.409,104.188v10.337c0,1.049,0.85,1.9,1.9,1.9c1.049,0,1.899-0.851,1.899-1.9v-10.337c0-1.049-0.85-1.9-1.899-1.9C91.259,102.288,90.409,103.139,90.409,104.188z M23.606,91.537c0,1.049,0.85,1.9,1.899,1.9h35.308c1.049,0,1.899-0.851,1.899-1.9s-0.851-1.9-1.899-1.9H25.505C24.456,89.637,23.606,90.488,23.606,91.537z M15.659,91.537c0,1.049,0.851,1.9,1.9,1.9h2.429c1.051,0,1.901-0.851,1.901-1.9s-0.85-1.9-1.901-1.9H17.56C16.51,89.637,15.659,90.488,15.659,91.537z"/>
</svg>
