<?xml version="1.0" encoding="utf-8"?>
<!-- Generator: Adobe Illustrator 16.0.0, SVG Export Plug-In . SVG Version: 6.00 Build 0)  -->

<svg x="0px" y="0px" width="44.949px" height="29.525px" viewBox="0 0 44.949 29.525" enable-background="new 0 0 44.949 29.525">
	<path fill="#d15b05" d="M21.983,29.525c-5.46,0-10.919-1.638-15.789-4.913c-0.499-0.336-0.798-0.896-0.798-1.495v-9.606c0-0.996,0.806-1.801,1.8-1.801c0.997,0,1.802,0.806,1.802,1.801v8.626c8.088,5.031,17.882,5.031,25.97,0v-8.626c0-0.996,0.806-1.801,1.802-1.801c0.995,0,1.801,0.806,1.801,1.801v9.606c0,0.599-0.299,1.159-0.795,1.495C32.907,27.888,27.442,29.525,21.983,29.525L21.983,29.525zM43.147,24.62c-0.496,0-0.9-0.403-0.9-0.901V10.509c0-0.498,0.404-0.901,0.9-0.901c0.499,0,0.9,0.403,0.9,0.901v13.209C44.048,24.217,43.646,24.62,43.147,24.62L43.147,24.62zM43.147,25.52c-0.996,0-1.802-0.806-1.802-1.801v-6.304c0-0.996,0.806-1.802,1.802-1.802c0.995,0,1.802,0.806,1.802,1.802v6.304C44.949,24.714,44.143,25.52,43.147,25.52L43.147,25.52zM21.983,21.189c-0.242,0-0.488-0.049-0.718-0.149L1.083,12.247C0.425,11.96,0,11.311,0,10.596C0,9.88,0.425,9.23,1.083,8.943l20.183-8.792c0.457-0.201,0.981-0.201,1.438,0l20.179,8.792c0.657,0.287,1.081,0.937,1.081,1.652c0,0.715-0.424,1.365-1.081,1.651L22.704,21.04C22.477,21.141,22.229,21.189,21.983,21.189L21.983,21.189z M6.311,10.596l15.673,6.828l15.672-6.828L21.983,3.767L6.311,10.596L6.311,10.596z"/>
</svg>
