<?xml version="1.0" encoding="utf-8"?>
<!-- Generator: Adobe Illustrator 16.0.0, SVG Export Plug-In . SVG Version: 6.00 Build 0)  -->

<svg x="0px" y="0px" width="30.616px" height="42.196px" viewBox="0 0 30.616 42.196" enable-background="new 0 0 30.616 42.196">
	<path fill="#952d98" d="M26.268,42.196H4.352C1.952,42.196,0,40.246,0,37.849v-33.5C0,1.951,1.952,0,4.352,0h21.916c2.399,0,4.349,1.951,4.349,4.348v33.5C30.616,40.246,28.667,42.196,26.268,42.196L26.268,42.196z M4.352,3.688c-0.367,0-0.662,0.295-0.662,0.66v33.5c0,0.363,0.295,0.659,0.662,0.659h21.916c0.362,0,0.658-0.296,0.658-0.659v-33.5c0-0.364-0.296-0.66-0.658-0.66H4.352L4.352,3.688zM23.292,12.602L7.58 12.602 7.58 9 23.292 9 23.292 12.602 zM11.784,20.547L7.58 20.547 7.58 16.945 11.784 16.945 11.784 20.547 zM17.54,20.547L13.336 20.547 13.336 16.945 17.54 16.945 17.54 20.547 zM23.292,20.547L19.088 20.547 19.088 16.945 23.292 16.945 23.292 20.547 zM11.784,25.726L7.58 25.726 7.58 22.124 11.784 22.124 11.784 25.726 zM17.54,25.726L13.336 25.726 13.336 22.124 17.54 22.124 17.54 25.726 zM23.292,25.726L19.088 25.726 19.088 22.124 23.292 22.124 23.292 25.726 zM11.784,30.904L7.58 30.904 7.58 27.302 11.784 27.302 11.784 30.904 zM17.54,30.904L13.336 30.904 13.336 27.302 17.54 27.302 17.54 30.904 zM23.292,30.904L19.088 30.904 19.088 27.302 23.292 27.302 23.292 30.904z"/>
</svg>