<?xml version="1.0" encoding="utf-8"?>
<!-- Generator: Adobe Illustrator 16.0.0, SVG Export Plug-In . SVG Version: 6.00 Build 0)  -->

<svg x="0px" y="0px" width="64px" height="64px" viewBox="0 0 64 64">
	<path fill="#222829" d="M18,64h2V51h-7c-2.757,0-5-2.243-5-5V36H2v-0.78l6-13V22C8,10.972,16.972,2,28,2V0C15.943,0,6.12,9.749,6.001,21.778L0,34.781V38h6v8c0,3.859,3.141,7,7,7h5V64zM40,37l10.242-0.03L58.123,35H64v-2l-6.242,0.03L49.877,35H40c-0.552,0-1-0.449-1-1s0.448-1,1-1v-2h-2c-0.552,0-1-0.449-1-1s0.448-1,1-1v-2h-2c-0.552,0-1-0.449-1-1s0.448-1,1-1v-2c-1.654,0-3,1.346-3,3c0,1.381,0.938,2.547,2.211,2.895C35.075,29.237,35,29.61,35,30c0,1.381,0.938,2.547,2.211,2.895C37.075,33.237,37,33.61,37,34C37,35.654,38.346,37,40,37zM28,37c2.1,0,4.133-0.427,6.043-1.268l-0.807-1.83C31.582,34.631,29.82,35,28,35c-7.168,0-13-5.832-13-13S20.832,9,28,9h4V7h-4c-8.271,0-15,6.729-15,15C13,30.271,19.729,37,28,37zM28,29c1.008,0,1.981-0.21,2.895-0.625l-0.826-1.821C29.416,26.851,28.721,27,28,27c-2.757,0-5-2.243-5-5c0-2.757,2.243-5,5-5h4v-2h-4c-3.859,0-7,3.14-7,7S24.141,29,28,29zM28,33c1.537,0,3.025-0.312,4.423-0.926l-0.805-1.831C30.476,30.746,29.259,31,28,31c-4.963,0-9-4.038-9-9c0-4.962,4.037-9,9-9h4v-2h-4c-6.065,0-11,4.935-11,11C17,28.066,21.935,33,28,33zM55.713,22H64v-2h-7.713l-8-5H41c-1.654,0-3,1.346-3,3h2c0-0.551,0.448-1,1-1h6.713L55.713,22zM28,25h12v-2H28c-0.552,0-1-0.449-1-1s0.448-1,1-1h14v-2H28c-1.654,0-3,1.346-3,3S26.346,25,28,25z"/><rect x="19" y="51" fill="#222829" width="3" height="2"/><rect x="38" y="27" fill="#222829" width="4" height="2"/><rect x="40" y="31" fill="#222829" width="4" height="2"/><rect x="34" y="7" fill="#222829" width="2" height="2"/><rect x="34" y="15" fill="#222829" width="2" height="2"/><rect x="34" y="11" fill="#222829" width="2" height="2"/><rect x="28" fill="#222829" width="14" height="2"/><rect x="44" fill="#222829" width="2" height="2"/>
</svg>
