<?xml version="1.0" encoding="utf-8"?>
<!-- Generator: Adobe Illustrator 16.0.0, SVG Export Plug-In . SVG Version: 6.00 Build 0)  -->
<svg x="0px" y="0px" width="24.13px" height="20.8px" viewBox="0 0 24.13 20.8" enable-background="new 0 0 24.13 20.8"><path fill="#FA7101" d="M21.88,8.34L21.88 16.01 18.5 14.32 18.5 10.03 z"/><path fill="#1a9ce3" d="M23.88,6.72v10.9c0,0.35-0.17,0.67-0.47,0.85c-0.16,0.101-0.34,0.15-0.53,0.15c-0.15,0-0.3-0.03-0.44-0.101l-3.94-1.96V14.32l3.38,1.689V8.34l-3.38,1.69V7.79l3.94-1.96c0.31-0.15,0.68-0.14,0.97,0.05C23.71,6.06,23.88,6.38,23.88,6.72zM18.41,10.07v4.21l0.09,0.04v2.239l-1.54-0.77c-0.22-0.11-0.38-0.28-0.46-0.5V9.06c0.08-0.22,0.24-0.399,0.46-0.51l1.54-0.76v2.24L18.41,10.07zM16.5,9.06v6.23c-0.06-0.12-0.09-0.25-0.09-0.39V9.45C16.41,9.31,16.44,9.18,16.5,9.06zM15.32,4.25c0,0.56-0.44,1-1,1c-0.55,0-1-0.44-1-1c0-0.16-0.02-0.31-0.05-0.45h2.02C15.31,3.95,15.32,4.1,15.32,4.25zM14.28,14.84c0,0.55-0.45,1-1,1H5.41c-0.56,0-1-0.45-1-1c0-0.56,0.44-1,1-1h7.87C13.83,13.84,14.28,14.28,14.28,14.84zM11.32,0.25c2.06,0,3.75,1.56,3.97,3.55h-2.02c-0.21-0.89-1-1.55-1.95-1.55H3.66c-0.56,0-1-0.44-1-1c0-0.55,0.44-1,1-1H11.32zM18.5,5.8v1.99l-1.54,0.76c-0.22,0.11-0.38,0.29-0.46,0.51V5.8H2.25v12.75H16.5v-3.26c0.08,0.22,0.24,0.39,0.46,0.5l1.54,0.77v1.99c0,1.101-0.9,2-2,2H2.25c-1.1,0-2-0.899-2-2V5.8c0-1.1,0.9-2,2-2h11.02c0.03,0.141,0.05,0.29,0.05,0.45c0,0.56,0.45,1,1,1c0.56,0,1-0.44,1-1c0-0.15-0.01-0.3-0.03-0.45h1.21C17.6,3.8,18.5,4.7,18.5,5.8z"/></svg>
