<?xml version="1.0" encoding="utf-8"?>
<!-- Generator: Adobe Illustrator 16.0.0, SVG Export Plug-In . SVG Version: 6.00 Build 0)  -->
<svg x="0px" y="0px" width="27.114px" height="24.718px" viewBox="0 0 27.114 24.718" enable-background="new 0 0 27.114 24.718">
	<path fill="#4F453C" d="M11.487,19.833c-0.273,0-0.535-0.112-0.725-0.311l-6.625-6.958c-0.381-0.4-0.365-1.033,0.035-1.414c0.398-0.381,1.031-0.366,1.414,0.035l5.845,6.138L25.341,0.366c0.351-0.425,0.98-0.49,1.407-0.139c0.428,0.351,0.489,0.98,0.14,1.408L12.261,19.468c-0.182,0.222-0.45,0.354-0.736,0.365C11.512,19.833,11.5,19.833,11.487,19.833L11.487,19.833z"/>
	<path fill="#4F453C" d="M22.834,24.718H1c-0.553,0-1-0.448-1-1V1.884c0-0.552,0.447-1,1-1h16.469c0.552,0,1,0.448,1,1s-0.448,1-1,1H2v19.834h19.834v-9.836c0-0.552,0.447-1,1-1c0.552,0,1,0.448,1,1v10.836C23.834,24.271,23.386,24.718,22.834,24.718L22.834,24.718z"/>
</svg>
