<?xml version="1.0" encoding="utf-8"?>
<!-- Generator: Adobe Illustrator 16.0.0, SVG Export Plug-In . SVG Version: 6.00 Build 0)  -->
<svg x="0px" y="0px" width="24.33px" height="24.33px" viewBox="0 0 24.33 24.33" enable-background="new 0 0 24.33 24.33"><path fill="#FA7101" d="M19.52,7.33L9.16,17.69l-0.97,0.06c-0.16-0.97-0.86-1.68-1.81-1.86l0.06-0.93L16.8,4.61L19.52,7.33z"/><path fill="#1a9ce3" d="M20.73,7.12c0.19,0.19,0.19,0.51,0,0.71c-0.1,0.09-0.23,0.14-0.36,0.14s-0.25-0.05-0.35-0.14l-0.5-0.5l0.7-0.71L20.73,7.12zM17.5,3.9L20.22 6.62 19.52 7.33 16.8 4.61 zM17.5,3.9l-0.7,0.71l-0.5-0.5c-0.2-0.2-0.2-0.52,0-0.71c0.19-0.2,0.51-0.2,0.7,0L17.5,3.9zM6.38,15.89c0.95,0.18,1.65,0.89,1.81,1.86l-1.93,0.11L6.38,15.89zM5.22,18.95L5.4,15.9c0.08-0.01,0.15-0.04,0.23-0.05c0.09,0,0.17-0.01,0.26-0.01c0.17,0,0.33,0.02,0.49,0.05l-0.12,1.97l1.93-0.11c0.03,0.21,0.04,0.44,0.02,0.68c-0.01,0.12-0.04,0.23-0.07,0.34L5.22,18.95zM9.66,19.66l-4.4,0.26c-0.02,0-0.04,0-0.06,0c-0.26,0-0.52-0.1-0.71-0.29c-0.2-0.2-0.3-0.48-0.29-0.76l0.26-4.4c0.02-0.25,0.12-0.48,0.29-0.65L17.86,0.71c0.19-0.19,0.44-0.29,0.71-0.29c0.26,0,0.52,0.1,0.7,0.29l4.14,4.14c0.19,0.18,0.3,0.44,0.3,0.7c0,0.27-0.11,0.52-0.3,0.71L10.3,19.37C10.13,19.55,9.9,19.65,9.66,19.66z M5.4,15.9l-0.18,3.05l2.92-0.18c0.03-0.11,0.06-0.22,0.07-0.34c0.02-0.24,0.01-0.47-0.02-0.68l0.97-0.06L19.52,7.33l0.5,0.5c0.1,0.09,0.22,0.14,0.35,0.14s0.26-0.05,0.36-0.14c0.19-0.2,0.19-0.52,0-0.71l-0.51-0.5l1.07-1.07l-2.72-2.72L17.5,3.9L17,3.4c-0.19-0.2-0.51-0.2-0.7,0c-0.2,0.19-0.2,0.51,0,0.71l0.5,0.5L6.44,14.96l-0.06,0.93c-0.16-0.03-0.32-0.05-0.49-0.05c-0.09,0-0.17,0.01-0.26,0.01C5.55,15.86,5.48,15.89,5.4,15.9zM2.25,22.08h19.83v-9.83c0-0.56,0.45-1,1-1c0.56,0,1,0.44,1,1v10.83c0,0.55-0.44,1-1,1H1.25c-0.55,0-1-0.45-1-1V1.25c0-0.56,0.45-1,1-1h10.83c0.56,0,1,0.44,1,1c0,0.55-0.44,1-1,1H2.25V22.08z"/></svg>
