<svg x="0px" y="0px" width="130px" height="130px" viewBox="0 0 153.973 155.059">
<path fill="#e1f2fb" d="M90.804,123.033c0.033,0.02,0.065,0.04,0.099,0.06c0.344,0.205,0.697,0.395,1.061,0.57c0.076,0.037,0.15,0.074,0.227,0.109c0.321,0.148,0.648,0.282,0.982,0.406c0.124,0.046,0.246,0.093,0.371,0.136c0.29,0.099,0.584,0.184,0.882,0.263c0.113,0.03,0.221,0.072,0.335,0.1c0.053,0.012,0.109,0.017,0.163,0.029c0.411,0.093,0.828,0.165,1.251,0.221c0.074,0.009,0.146,0.025,0.22,0.033c0.528,0.061,1.063,0.1,1.606,0.1c0.06,0,0.116-0.014,0.176-0.015c0.606-0.008,1.204-0.061,1.793-0.15c0.371-0.053,0.729-0.138,1.091-0.221c0.125-0.03,0.256-0.043,0.379-0.076c0.061,0,0.101,0,0.141-0.041c0.06-0.015,0.115-0.043,0.174-0.06c0.492-0.14,0.969-0.303,1.438-0.494c0.2-0.081,0.394-0.168,0.589-0.257c0.416-0.192,0.822-0.395,1.215-0.625c0.212-0.125,0.414-0.263,0.619-0.398c0.369-0.243,0.733-0.487,1.077-0.764c0.172-0.139,0.328-0.294,0.493-0.441c0.357-0.316,0.714-0.63,1.037-0.982c0.011-0.01,0.017-0.015,0.027-0.021c0.022-0.021,0.052-0.027,0.074-0.049c0.356-0.356,0.68-0.736,0.988-1.126c0.075-0.095,0.143-0.193,0.215-0.29c0.234-0.315,0.452-0.641,0.654-0.975c0.054-0.09,0.111-0.179,0.163-0.271c0.49-0.862,0.875-1.776,1.145-2.729c0.009-0.033,0.024-0.063,0.034-0.097c0.14,0.021,0.26,0.021,0.4,0.041c0.097,0.008,0.188-0.008,0.286-0.002c0.697,0.042,1.384,0.042,2.059-0.01c0.068-0.006,0.138-0.004,0.206-0.011c4.136-0.38,7.765-2.488,10.213-5.584c0.039-0.049,0.079-0.095,0.117-0.145c0.458-0.594,0.873-1.222,1.24-1.882c0.042-0.075,0.077-0.153,0.118-0.229c0.333-0.626,0.626-1.275,0.869-1.95c0.021-0.061,0.049-0.118,0.069-0.179c0.243-0.702,0.426-1.429,0.563-2.172c0.024-0.132,0.044-0.265,0.064-0.398c0.119-0.758,0.201-1.528,0.201-2.319c0-0.419-0.022-0.848-0.061-1.282c0.745-0.395,1.451-0.842,2.128-1.325c0.157-0.112,0.298-0.242,0.451-0.359c0.497-0.378,0.982-0.768,1.437-1.19c0.204-0.189,0.387-0.395,0.581-0.592c0.371-0.377,0.734-0.758,1.071-1.163c0.208-0.251,0.399-0.514,0.595-0.775c0.281-0.376,0.553-0.756,0.806-1.152c0.198-0.31,0.381-0.627,0.56-0.948c0.205-0.368,0.398-0.74,0.579-1.121c0.175-0.369,0.338-0.74,0.49-1.12c0.138-0.348,0.259-0.701,0.376-1.058c0.142-0.429,0.277-0.857,0.388-1.296c0.079-0.314,0.136-0.633,0.199-0.952c0.098-0.494,0.193-0.986,0.251-1.49c0.006-0.053,0.021-0.104,0.026-0.157c0.064-0.527,0.083-1.072,0.096-1.615c0.003-0.136,0.028-0.268,0.028-0.405c0-0.75-0.055-1.492-0.143-2.227c-0.006-0.052-0.018-0.103-0.024-0.155c-0.089-0.7-0.22-1.391-0.386-2.071c-0.002-0.007-0.004-0.014-0.005-0.02c-0.354-1.446-0.879-2.836-1.556-4.152c-0.04-0.082-0.083-0.161-0.124-0.242c-0.002-0.004-0.004-0.009-0.006-0.013c-0.004-0.007-0.009-0.015-0.013-0.022c-0.19-0.356-0.39-0.707-0.603-1.05c-0.029-0.049-0.056-0.1-0.085-0.147c-0.1-0.14-0.16-0.3-0.26-0.44c-0.08-0.121-0.18-0.24-0.26-0.36c-0.031-0.04-0.063-0.082-0.094-0.122c-0.123-0.171-0.256-0.332-0.385-0.499c-0.118-0.149-0.234-0.299-0.357-0.444c-0.015-0.018-0.029-0.038-0.044-0.055c-0.037-0.046-0.074-0.086-0.112-0.13c-0.578-0.688-1.187-1.352-1.864-1.957c0.016-0.016,0.026-0.035,0.042-0.051c0.48-0.513,0.911-1.062,1.316-1.627c0.116-0.162,0.233-0.32,0.342-0.485c0.375-0.569,0.71-1.159,1.008-1.769c0.076-0.156,0.145-0.314,0.215-0.473c0.901-2.013,1.396-4.21,1.396-6.489c0-3.561-1.212-6.959-3.319-9.696c-1.262-1.642-2.846-3.044-4.683-4.102c0-0.067,0.002-0.133,0.002-0.202c0-7.777-5.526-14.302-13.046-15.665c-0.224-0.581-0.507-1.126-0.793-1.671c-2.706-5.165-8.112-8.587-14.085-8.587c-0.689,0-1.363,0.059-2.03,0.145c-0.16,0.021-0.316,0.047-0.474,0.072c-0.539,0.086-1.068,0.197-1.588,0.336c-0.127,0.034-0.258,0.061-0.384,0.099c-0.632,0.186-1.249,0.405-1.846,0.664c-0.073,0.031-0.142,0.071-0.214,0.104c-0.518,0.234-1.018,0.497-1.505,0.783c-0.138,0.081-0.273,0.164-0.408,0.248c-0.478,0.301-0.939,0.623-1.38,0.97c-0.061,0.048-0.126,0.091-0.186,0.139c-0.498,0.404-0.967,0.84-1.412,1.299c-0.094,0.098-0.181,0.201-0.273,0.301c-0.347,0.377-0.676,0.771-0.986,1.18c-0.098,0.129-0.197,0.256-0.291,0.389c-0.368,0.519-0.717,1.052-1.023,1.614c-0.017-0.031-0.04-0.059-0.058-0.091c-0.286-0.519-0.607-1.014-0.947-1.495c-0.109-0.154-0.225-0.303-0.339-0.453c-0.29-0.381-0.597-0.747-0.919-1.1c-0.11-0.121-0.215-0.245-0.329-0.362c-0.435-0.447-0.892-0.872-1.376-1.267c-0.085-0.069-0.176-0.129-0.263-0.196c-0.415-0.324-0.846-0.626-1.292-0.908c-0.154-0.098-0.309-0.192-0.467-0.284c-0.454-0.267-0.922-0.51-1.403-0.731c-0.104-0.048-0.203-0.103-0.308-0.148c-0.582-0.251-1.182-0.465-1.797-0.646c-0.154-0.046-0.313-0.081-0.471-0.121c-0.485-0.128-0.978-0.232-1.479-0.313c-0.186-0.031-0.369-0.062-0.556-0.085c-0.655-0.083-1.319-0.139-1.996-0.139c-6.6,0-12.54,4.16-14.88,10.259c-0.797,0.145-1.565,0.358-2.313,0.613c-0.092,0.032-0.186,0.057-0.276,0.089c-0.699,0.253-1.369,0.561-2.017,0.904c-0.114,0.06-0.229,0.118-0.341,0.181c-0.63,0.354-1.23,0.751-1.802,1.185c-0.098,0.074-0.194,0.148-0.289,0.224c-0.575,0.457-1.117,0.95-1.622,1.481c-0.06,0.063-0.116,0.127-0.175,0.19c-0.522,0.569-1.008,1.169-1.444,1.81c-0.011,0.016-0.021,0.033-0.032,0.05c-1.375,2.035-2.281,4.405-2.594,6.959c-0.003,0.025-0.012,0.048-0.015,0.074c-0.003,0.006-0.004,0.015-0.007,0.022c-0.03,0.098-0.085,0.184-0.099,0.289c-0.057,0.419-0.108,1.018-0.109,1.732c-0.001,0.042-0.005,0.075-0.005,0.117c-0.212,0.125-0.401,0.278-0.606,0.412c-0.374,0.242-0.753,0.477-1.103,0.748c-0.136,0.106-0.254,0.23-0.386,0.34c-0.403,0.334-0.804,0.67-1.17,1.04c-0.088,0.089-0.161,0.19-0.247,0.281c-0.387,0.41-0.767,0.827-1.108,1.275c-0.07,0.092-0.125,0.195-0.194,0.289c-0.335,0.46-0.66,0.927-0.945,1.419c-0.078,0.135-0.135,0.282-0.21,0.42c-0.25,0.465-0.499,0.932-0.703,1.42c-0.091,0.219-0.151,0.451-0.233,0.674c-0.155,0.423-0.319,0.841-0.438,1.276c-0.096,0.353-0.148,0.718-0.22,1.078c-0.064,0.321-0.15,0.636-0.195,0.962c-0.094,0.693-0.142,1.396-0.142,2.105c0,0.681,0.04,1.34,0.14,1.98c0.001,0.012,0.006,0.023,0.007,0.035c0.083,0.663,0.221,1.31,0.385,1.951c0.035,0.138,0.054,0.279,0.093,0.416c0.16,0.561,0.372,1.101,0.594,1.638c0.08,0.196,0.14,0.399,0.228,0.592c0.194,0.422,0.436,0.819,0.667,1.223c0.165,0.288,0.309,0.586,0.492,0.864c0.013,0.02,0.021,0.042,0.035,0.062c-11.16,2.72-19.84,12.58-20.66,24.34c-0.54,7.919,2.4,15.64,8.08,21.18c1.2,1.18,1.86,2.66,1.86,4.16v8.44c0,3.92,3.2,7.12,7.12,7.12h19.76c3.92,0,7.12-3.2,7.12-7.12v-5.84c0.06,0.103,0.137,0.194,0.199,0.295c0.091,0.146,0.193,0.284,0.289,0.427c0.221,0.327,0.443,0.652,0.689,0.958c0.083,0.103,0.175,0.195,0.261,0.295c1.116,1.31,2.461,2.407,3.986,3.229c0.014,0.007,0.028,0.014,0.042,0.021c0.586,0.313,1.196,0.58,1.828,0.808c0.037,0.013,0.069,0.034,0.105,0.046c0.06,0.02,0.12,0.04,0.18,0.061c0.034,0.012,0.074,0.018,0.108,0.03c0.393,0.128,0.79,0.239,1.197,0.333c0.046,0.01,0.087,0.028,0.135,0.038c0.18,0.06,0.36,0.08,0.54,0.12c0.08,0.014,0.153,0.019,0.227,0.027c0.722,0.116,1.457,0.193,2.213,0.193c0.533,0,1.058-0.037,1.577-0.095c0.124-0.015,0.244-0.039,0.367-0.056c0.373-0.053,0.742-0.113,1.104-0.195c0.063-0.014,0.129-0.019,0.192-0.034c0.134-0.032,0.261-0.08,0.393-0.117c0.268-0.072,0.534-0.149,0.795-0.237c0.149-0.05,0.294-0.106,0.441-0.161c0.311-0.117,0.616-0.241,0.916-0.379c0.095-0.044,0.188-0.09,0.281-0.136c0.346-0.167,0.683-0.349,1.012-0.544c0.046-0.027,0.091-0.056,0.137-0.083c0.371-0.227,0.73-0.469,1.078-0.728c0.006-0.004,0.011-0.008,0.017-0.013c1.487-1.112,2.743-2.51,3.688-4.118C87.172,120.158,88.825,121.832,90.804,123.033z M87.924,98.688c0-0.383,0.044-0.756,0.113-1.12c0.019-0.097,0.046-0.19,0.069-0.286c0.063-0.259,0.141-0.512,0.235-0.757c0.043-0.111,0.088-0.221,0.138-0.329c0.103-0.225,0.223-0.438,0.351-0.646c0.062-0.1,0.117-0.205,0.185-0.301c0.173-0.249,0.368-0.479,0.576-0.699c0.152-0.158,0.318-0.299,0.486-0.439c0.103-0.087,0.203-0.178,0.312-0.257c0.2-0.146,0.411-0.276,0.628-0.396c0.053-0.029,0.106-0.059,0.159-0.087c0.252-0.128,0.512-0.244,0.783-0.335c0.301-0.117,0.613-0.203,0.934-0.263c0.128-0.023,0.262-0.025,0.393-0.04c0.216-0.024,0.43-0.058,0.653-0.058c0.099,0,0.193,0.022,0.291,0.027c0.328,0.016,0.653,0.052,0.97,0.12c0.166,0.036,0.326,0.084,0.486,0.132c0.291,0.089,0.574,0.196,0.847,0.326c0.109,0.052,0.221,0.096,0.326,0.154c0.358,0.199,0.696,0.436,1.009,0.705c0.063,0.054,0.124,0.112,0.185,0.169c0.325,0.304,0.628,0.636,0.884,1.014c0.041,0.061,0.103,0.092,0.148,0.146c0.109,0.128,0.219,0.253,0.351,0.346c0.076,0.053,0.159,0.083,0.241,0.124c0.128,0.066,0.256,0.125,0.395,0.159c0.091,0.023,0.18,0.029,0.274,0.038c0.127,0.012,0.252,0.015,0.382,0c0.119-0.012,0.231-0.037,0.347-0.071c0.042-0.013,0.084-0.01,0.125-0.026c0.109-0.032,0.213-0.096,0.313-0.157c0.03-0.018,0.064-0.02,0.094-0.04c0.881-0.594,1.111-1.79,0.518-2.669c-1.221-1.807-2.982-3.115-4.984-3.802c-1.018-0.352-2.095-0.552-3.201-0.552c-0.625,0-1.229,0.073-1.818,0.189c-0.29,0.055-0.563,0.149-0.843,0.228c-0.246,0.073-0.494,0.137-0.732,0.228c-0.418,0.155-0.814,0.344-1.205,0.552c-0.053,0.029-0.107,0.058-0.16,0.087c-0.442,0.246-0.861,0.518-1.258,0.827V42.682c0.438,0.459,0.906,0.887,1.403,1.282c0.045,0.036,0.092,0.067,0.137,0.103c0.441,0.341,0.903,0.655,1.384,0.942c0.077,0.046,0.152,0.095,0.23,0.139c0.529,0.302,1.078,0.571,1.647,0.803c0.051,0.021,0.103,0.037,0.154,0.056c0.552,0.217,1.123,0.396,1.707,0.54c0.032,0.008,0.061,0.022,0.093,0.029c0.025,0.007,0.051,0.008,0.077,0.015c0.366,0.085,0.738,0.152,1.114,0.208c0.183,0.029,0.362,0.063,0.547,0.083c0.213,0.023,0.431,0.027,0.646,0.041c0.279,0.018,0.554,0.052,0.835,0.052c0.219,0,0.43-0.029,0.646-0.04c0.271-0.012,0.542-0.022,0.81-0.05c0.194-0.021,0.387-0.053,0.58-0.083c0.35-0.052,0.697-0.115,1.04-0.193c0.062-0.014,0.125-0.019,0.186-0.034c0.066-0.015,0.129-0.041,0.195-0.057c0.315-0.081,0.627-0.174,0.936-0.277c0.173-0.058,0.346-0.114,0.517-0.179c0.3-0.113,0.593-0.243,0.884-0.377c0.129-0.06,0.262-0.113,0.389-0.177c1.212-0.605,2.343-1.388,3.349-2.343c0.294-0.28,0.445-0.636,0.522-1.006c0.089-0.409,0.051-0.826-0.137-1.209c-0.084-0.177-0.174-0.354-0.315-0.504c-0.344-0.362-0.797-0.545-1.258-0.579c-0.524-0.042-1.057,0.114-1.462,0.509c-1.86,1.76-4.3,2.74-6.88,2.74c-0.108,0-0.21-0.025-0.317-0.029c-0.529-0.017-1.051-0.061-1.557-0.157c-0.244-0.047-0.474-0.13-0.712-0.195c-0.36-0.098-0.722-0.195-1.064-0.331c-0.248-0.098-0.481-0.222-0.719-0.338c-0.311-0.153-0.618-0.312-0.91-0.495c-0.225-0.141-0.438-0.296-0.649-0.454c-0.279-0.208-0.548-0.427-0.803-0.663c-0.187-0.171-0.367-0.348-0.54-0.532c-0.253-0.272-0.487-0.56-0.709-0.859c-0.136-0.182-0.274-0.36-0.398-0.551c-0.234-0.363-0.434-0.749-0.621-1.141c-0.073-0.154-0.159-0.3-0.224-0.458c-0.479-1.167-0.752-2.439-0.752-3.777c0-0.043,0.006-0.084,0.006-0.127c0.005-0.536,0.054-1.061,0.128-1.579c0.021-0.146,0.041-0.292,0.067-0.435c0.097-0.54,0.224-1.069,0.391-1.581c0.029-0.091,0.067-0.177,0.098-0.268c0.172-0.487,0.372-0.961,0.602-1.417c0.032-0.063,0.059-0.128,0.092-0.19c0.265-0.501,0.566-0.981,0.896-1.439c0.045-0.063,0.093-0.125,0.14-0.187c0.699-0.93,1.526-1.758,2.46-2.454c0.047-0.035,0.094-0.071,0.142-0.106c0.474-0.343,0.971-0.654,1.493-0.927c0.029-0.015,0.061-0.028,0.09-0.043c0.51-0.261,1.041-0.485,1.588-0.673c0.041-0.014,0.08-0.031,0.121-0.044c0.539-0.178,1.097-0.312,1.665-0.413c0.117-0.021,0.236-0.037,0.354-0.054c0.541-0.081,1.09-0.131,1.649-0.136c0.031,0,0.062-0.005,0.093-0.005c0.648,0,1.287,0.058,1.915,0.159c0.415,0.07,0.813,0.184,1.212,0.297c0.219,0.06,0.446,0.095,0.661,0.167c0.016,0.005,0.037,0.009,0.052,0.014c0.035,0.012,0.068,0.03,0.104,0.042c0.511,0.179,1.005,0.397,1.485,0.642c0.158,0.08,0.31,0.17,0.463,0.256c0.367,0.207,0.724,0.433,1.067,0.677c0.139,0.099,0.28,0.194,0.415,0.298c0.911,0.706,1.72,1.538,2.401,2.477c0.098,0.135,0.187,0.278,0.28,0.417c0.234,0.354,0.449,0.721,0.646,1.1c0.086,0.167,0.176,0.333,0.255,0.505c0.196,0.425,0.36,0.866,0.507,1.317c0.036,0.111,0.085,0.216,0.117,0.329c0.101,0.339,0.302,0.627,0.556,0.857c0.3,0.276,0.679,0.466,1.103,0.508c0.697,0.071,1.366,0.217,2.02,0.398c0.142,0.038,0.283,0.078,0.422,0.125c0.448,0.142,0.874,0.328,1.296,0.519c0.229,0.104,0.469,0.189,0.69,0.307c0.55,0.292,1.073,0.625,1.567,0.994c0.298,0.224,0.564,0.483,0.839,0.733c0.202,0.182,0.409,0.357,0.597,0.553c0.284,0.295,0.542,0.612,0.794,0.935c0.138,0.176,0.274,0.353,0.402,0.536c0.25,0.36,0.484,0.731,0.695,1.118c0.083,0.154,0.157,0.314,0.235,0.471c0.213,0.437,0.417,0.878,0.578,1.342c0.011,0.031,0.017,0.064,0.027,0.095c0.378,1.124,0.603,2.319,0.637,3.563c-1.323-0.028-2.626,0.218-3.83,0.719c-0.138,0.057-0.271,0.12-0.405,0.183c-0.304,0.144-0.597,0.305-0.883,0.482c-0.168,0.103-0.337,0.202-0.499,0.316c-0.273,0.195-0.528,0.416-0.779,0.643c-0.111,0.1-0.238,0.177-0.344,0.283c-1.551,1.562-2.216,3.363-2.478,4.874c-0.006,0.035-0.006,0.064-0.012,0.098c-0.238,1.46-0.108,2.638-0.05,3.028c0.02,0.16,0.08,0.3,0.14,0.44c0.012,0.028,0.034,0.05,0.047,0.078c0.052,0.108,0.114,0.203,0.184,0.298c0.048,0.065,0.097,0.126,0.152,0.185c0.085,0.089,0.17,0.171,0.27,0.243c0.07,0.051,0.146,0.088,0.221,0.129c0.098,0.053,0.19,0.109,0.297,0.144c0.148,0.051,0.305,0.072,0.463,0.084c0.045,0.003,0.084,0.023,0.13,0.023c0.098,0,0.197-0.008,0.297-0.023c0.066-0.011,0.117-0.05,0.181-0.067c0.458-0.118,0.843-0.371,1.094-0.736c0.274-0.392,0.41-0.883,0.331-1.394c-0.045-0.284-0.381-2.836,1.459-4.677c0.316-0.316,0.684-0.566,1.066-0.786c0.105-0.06,0.211-0.118,0.32-0.169c0.296-0.144,0.608-0.249,0.928-0.336c0.13-0.037,0.256-0.091,0.389-0.117c0.458-0.091,0.931-0.131,1.406-0.104c0.034,0.001,0.069,0.009,0.104,0.011c0.474,0.035,0.948,0.127,1.412,0.283c0.017,0.005,0.033,0.008,0.05,0.013c0.216,0.072,0.429,0.085,0.638,0.083c0.068,0,0.133,0.005,0.199-0.002c0.014-0.001,0.029,0,0.043,0c0.225,0.146,0.428,0.317,0.641,0.477c0.213,0.16,0.434,0.313,0.634,0.486c0.188,0.161,0.358,0.339,0.535,0.511c0.212,0.207,0.424,0.412,0.62,0.632c0.152,0.171,0.292,0.353,0.434,0.532c0.195,0.247,0.385,0.497,0.56,0.757c0.12,0.177,0.231,0.358,0.341,0.542c0.172,0.287,0.331,0.581,0.479,0.881c0.087,0.176,0.173,0.352,0.251,0.532c0.144,0.333,0.268,0.675,0.382,1.021c0.054,0.162,0.113,0.322,0.16,0.486c0.114,0.405,0.201,0.818,0.272,1.236c0.02,0.116,0.051,0.229,0.067,0.346c0.077,0.547,0.121,1.101,0.121,1.662c0,0.04-0.006,0.078-0.007,0.117c-0.006,0.604-0.059,1.194-0.161,1.783c-0.01,0.066-0.022,0.132-0.034,0.199c-0.223,1.269-0.644,2.486-1.251,3.608c-0.017,0.03-0.033,0.059-0.05,0.088c-0.631,1.144-1.447,2.188-2.434,3.085c-0.038-0.018-0.078-0.029-0.117-0.046c-0.433-0.194-0.876-0.367-1.33-0.522c-0.14-0.049-0.279-0.104-0.421-0.149c-0.504-0.158-1.019-0.291-1.542-0.399c-0.058-0.012-0.111-0.033-0.169-0.044c-0.502-0.098-1.005-0.168-1.509-0.218c-0.286-0.029-0.57-0.033-0.855-0.046c-0.208-0.009-0.417-0.028-0.625-0.029c-0.364-0.002-0.726,0.02-1.088,0.042c-0.128,0.008-0.255,0.008-0.382,0.02c-0.396,0.035-0.79,0.093-1.181,0.157c-0.088,0.014-0.178,0.024-0.266,0.04c-0.414,0.075-0.824,0.173-1.23,0.282c-0.063,0.017-0.126,0.03-0.188,0.047c-0.426,0.119-0.845,0.26-1.261,0.415c-0.04,0.014-0.08,0.027-0.119,0.042c-0.436,0.166-0.862,0.354-1.284,0.559c-0.015,0.008-0.03,0.014-0.045,0.021c-0.435,0.213-0.861,0.448-1.279,0.703c-0.439-0.295-0.893-0.563-1.368-0.805c-0.083-0.043-0.168-0.08-0.252-0.121c-0.44-0.212-0.882-0.417-1.347-0.582c-0.138-0.05-0.285-0.08-0.424-0.125c-0.701-0.223-1.421-0.39-2.161-0.501c-0.258-0.04-0.511-0.097-0.773-0.122c-0.127-0.018-0.249-0.02-0.372-0.027c-0.131-0.009-0.26-0.023-0.392-0.028c-0.019-0.001-0.037-0.003-0.057-0.004c0.16-0.4,0.32-0.82,0.42-1.259c0.028-0.096,0.039-0.198,0.063-0.295c0.055-0.226,0.107-0.451,0.147-0.684c0.111-0.6,0.189-1.209,0.189-1.841c0-0.266-0.055-0.521-0.152-0.753c-0.033-0.079-0.097-0.136-0.14-0.209c-0.334-0.572-0.924-0.979-1.628-0.979c-0.326,0-0.619,0.104-0.888,0.25c-0.611,0.322-1.042,0.943-1.042,1.682c0,2.373-1.207,4.469-3.038,5.708c-0.734,0.496-1.568,0.855-2.465,1.039c-0.447,0.092-0.91,0.14-1.384,0.14c-0.266,0-0.519,0.054-0.75,0.151c-0.689,0.292-1.174,0.974-1.174,1.77l0,0l0,0.001c0,1.063,0.861,1.923,1.924,1.923c0.042,0,0.081-0.012,0.123-0.013c0.579-0.007,1.135-0.071,1.679-0.17c0.205-0.035,0.409-0.067,0.61-0.114c0.015-0.004,0.03-0.005,0.044-0.009c0.427-0.105,0.84-0.238,1.244-0.392c1.141-0.423,2.175-1.037,3.097-1.798c0.119-0.028,0.238-0.042,0.357-0.066c0.405-0.08,0.811-0.156,1.215-0.191c0.036-0.003,0.072,0,0.108-0.003c0.497-0.038,0.991-0.047,1.48-0.01c0.229,0.011,0.451,0.049,0.676,0.075c0.208,0.027,0.419,0.04,0.623,0.078c0.307,0.058,0.603,0.14,0.895,0.229c0.095,0.026,0.189,0.051,0.283,0.081c0.458,0.14,0.897,0.322,1.323,0.522c0.104,0.049,0.21,0.092,0.312,0.144c0.369,0.19,0.712,0.416,1.047,0.65c0.12,0.084,0.248,0.157,0.363,0.247c0.318,0.247,0.604,0.528,0.882,0.815c0.097,0.101,0.208,0.187,0.299,0.292c0.353,0.403,0.67,0.837,0.936,1.307c0.002,0.004,0.004,0.008,0.006,0.013c0.245,0.435,0.427,0.875,0.578,1.313c0.024,0.07,0.054,0.141,0.076,0.211c0.129,0.414,0.216,0.825,0.277,1.23c0.013,0.091,0.028,0.183,0.038,0.274c0.044,0.378,0.063,0.749,0.062,1.109c-0.001,0.136-0.007,0.269-0.014,0.401c-0.009,0.197-0.027,0.385-0.046,0.572c-0.039,0.348-0.089,0.685-0.156,0.997c-0.177,0.975-0.451,1.748-0.623,2.168c-0.051,0.121-0.093,0.214-0.118,0.27c-0.004,0.009-0.015,0.034-0.019,0.042c-0.109,0.229-0.16,0.468-0.175,0.705c-0.003,0.05,0.01,0.098,0.011,0.148c0.003,0.186,0.025,0.367,0.082,0.541c0.023,0.075,0.062,0.14,0.095,0.211c0.059,0.125,0.122,0.244,0.208,0.353c0.084,0.113,0.187,0.206,0.297,0.3c0.023,0.018,0.038,0.046,0.063,0.063c0.1,0.12,0.22,0.18,0.34,0.239c0.183,0.084,0.38,0.102,0.575,0.126c0.082,0.011,0.162,0.056,0.244,0.056c0.665,0,1.293-0.358,1.645-0.958c0.03-0.05,0.071-0.09,0.097-0.144c0.009-0.02,0.029-0.068,0.041-0.092c0.04-0.085,0.086-0.19,0.138-0.314c0.033-0.078,0.059-0.14,0.096-0.232c0.078-0.193,0.163-0.425,0.25-0.677c0.026-0.075,0.049-0.138,0.075-0.219c0.09-0.273,0.178-0.58,0.264-0.906c0.033-0.124,0.064-0.242,0.095-0.372c0.068-0.29,0.131-0.596,0.186-0.917c0.023-0.128,0.055-0.239,0.075-0.371c0.014-0.102,0.017-0.215,0.029-0.319c0.036-0.289,0.064-0.587,0.083-0.893c0.008-0.141,0.009-0.285,0.013-0.429c0.01-0.325,0.007-0.656-0.008-0.995c-0.004-0.106-0.004-0.208-0.012-0.316c-0.029-0.423-0.086-0.856-0.164-1.295c-0.024-0.136-0.052-0.272-0.082-0.41c-0.092-0.436-0.202-0.875-0.352-1.317c-0.012-0.036-0.016-0.07-0.028-0.106c-0.097-0.265-0.207-0.527-0.32-0.789c-0.025-0.058-0.044-0.114-0.07-0.171c-0.05-0.111-0.115-0.223-0.169-0.333c-0.108-0.224-0.212-0.446-0.338-0.669c-0.015-0.026-0.035-0.046-0.05-0.072c-0.255-0.45-0.57-0.868-0.873-1.266c0.56-0.28,1.12-0.5,1.7-0.66c0.927-0.306,1.893-0.492,2.873-0.558c0.034-0.001,0.067-0.003,0.102-0.005c0.417-0.024,0.838-0.019,1.259,0.002c0.092,0.005,0.185,0.006,0.277,0.014c0.47,0.035,0.941,0.093,1.41,0.187c0.037,0.008,0.069,0.02,0.106,0.028c0.59,0.121,1.152,0.309,1.708,0.511c0.313,0.112,0.618,0.239,0.918,0.377c0.371,0.17,0.727,0.364,1.077,0.57c0.282,0.167,0.566,0.332,0.833,0.521c0.316,0.224,0.607,0.481,0.901,0.736c0.262,0.228,0.536,0.439,0.778,0.69c0.331,0.341,0.621,0.725,0.913,1.107c0.131,0.171,0.283,0.32,0.405,0.498c0.16,0.24,0.3,0.5,0.46,0.76c0.23,0.393,0.437,0.797,0.622,1.209c0.011,0.025,0.021,0.05,0.032,0.076c0.168,0.385,0.316,0.777,0.444,1.175c0.041,0.13,0.07,0.262,0.106,0.393c0.088,0.31,0.173,0.619,0.236,0.934c0.09,0.474,0.16,0.953,0.192,1.436c0.008,0.117,0.059,0.217,0.086,0.328c0.023,0.085,0.032,0.175,0.067,0.255c0.055,0.138,0.133,0.256,0.217,0.375c0.021,0.031,0.035,0.069,0.057,0.099c0.042,0.321,0.055,0.657,0.07,0.991c0.004,0.144,0.026,0.285,0.026,0.429c0,0.708-0.058,1.406-0.154,2.093c-0.01,0.065-0.015,0.132-0.025,0.197c-0.101,0.657-0.249,1.302-0.434,1.932c-0.061,0.206-0.142,0.404-0.211,0.607c-0.138,0.405-0.287,0.805-0.457,1.194c-0.123,0.278-0.256,0.551-0.396,0.821c-0.144,0.282-0.301,0.556-0.462,0.827c-0.185,0.308-0.368,0.617-0.574,0.911c-0.111,0.16-0.237,0.309-0.355,0.464c-0.887,1.168-1.939,2.214-3.141,3.092c-0.097,0.071-0.192,0.143-0.291,0.212c-0.396,0.275-0.807,0.532-1.231,0.771c-0.043,0.023-0.088,0.045-0.131,0.068c-0.01,0.005-0.021,0.005-0.03,0.01h-0.004c-0.045,0.026-0.12,0.057-0.169,0.084c-0.893,0.481-2.507,1.097-4.528,0.959c-0.198-0.014-0.377,0.007-0.583-0.023c-1.125-0.163-2.046-0.548-2.797-0.967c-0.45-0.252-0.851-0.514-1.153-0.755c-0.738-0.592-1.756-0.516-2.443,0.084c-0.088,0.075-0.189,0.126-0.266,0.218c-0.399,0.508-0.472,1.138-0.308,1.71c0.105,0.375,0.291,0.731,0.619,0.993c0.13,0.104,0.305,0.217,0.454,0.326c0.133,0.097,0.245,0.188,0.395,0.292c0.026,0.018,0.059,0.035,0.085,0.053c0.081,0.053,0.166,0.103,0.251,0.155c0.303,0.19,0.633,0.374,0.989,0.552c0.083,0.042,0.158,0.083,0.243,0.123c0.415,0.196,0.865,0.375,1.348,0.533c0.151,0.05,0.312,0.09,0.469,0.135c0.172,0.049,0.333,0.106,0.514,0.148c0.02,0,0.04,0.02,0.08,0.02c0.253,0.067,0.528,0.113,0.81,0.152c0.057,0.009,0.103,0.028,0.16,0.036c0.253,0.037,0.485,0.033,0.731,0.053c0.321,0.029,0.655,0.079,0.959,0.079c0.718,0,1.396-0.079,2.034-0.179c0,0.006,0.002,0.013,0.002,0.019c0,0.065-0.01,0.128-0.011,0.193c-0.008,0.573-0.069,1.133-0.164,1.683c-0.022,0.131-0.041,0.264-0.068,0.394c-0.127,0.603-0.297,1.193-0.519,1.759c-0.019,0.049-0.041,0.096-0.06,0.145c-0.191,0.479-0.417,0.941-0.671,1.384c-0.031,0.055-0.059,0.111-0.091,0.166c-0.283,0.475-0.598,0.928-0.947,1.353c-0.027,0.033-0.059,0.064-0.086,0.098c-0.324,0.385-0.675,0.746-1.048,1.083c-0.062,0.055-0.121,0.112-0.184,0.167c-0.822,0.711-1.751,1.3-2.76,1.742c-0.081,0.035-0.163,0.07-0.246,0.104c-1.011,0.414-2.099,0.678-3.239,0.768c-0.115,0.009-0.232,0.013-0.348,0.018c-0.488,0.023-0.985,0.014-1.488-0.03c-0.07-0.006-0.138-0.006-0.208-0.014c0-0.007-0.002-0.013-0.003-0.02c-0.136-3.11-1.397-6.018-3.613-8.233c-0.079-0.078-0.179-0.114-0.266-0.176c-0.743-0.538-1.776-0.502-2.457,0.179c-0.179,0.179-0.31,0.388-0.402,0.609c-0.254,0.6-0.161,1.286,0.223,1.833c0.063,0.092,0.1,0.195,0.18,0.278c0.042,0.041,0.073,0.09,0.113,0.132c0.26,0.27,0.486,0.562,0.706,0.858c0.179,0.239,0.337,0.49,0.49,0.745c0.123,0.208,0.237,0.42,0.341,0.638c0.108,0.224,0.212,0.449,0.3,0.682c0.114,0.303,0.204,0.615,0.282,0.93c0.043,0.17,0.097,0.336,0.13,0.509c0.094,0.513,0.153,1.036,0.153,1.569c0,0.163-0.038,0.318-0.047,0.479c-0.004,0.025-0.006,0.053-0.008,0.078c-0.004,0.02-0.01,0.035-0.016,0.052c-0.018,0.07-0.062,0.128-0.071,0.2c-0.073,0.546-0.208,1.07-0.364,1.583c-0.046,0.149-0.094,0.298-0.147,0.444c-0.136,0.38-0.3,0.745-0.479,1.102c-0.098,0.193-0.195,0.387-0.304,0.572c-0.172,0.294-0.366,0.573-0.565,0.846c-0.148,0.203-0.294,0.407-0.457,0.598c-0.202,0.238-0.424,0.457-0.647,0.675c-0.19,0.185-0.375,0.375-0.579,0.544c-0.241,0.201-0.5,0.376-0.757,0.554c-0.212,0.146-0.418,0.302-0.642,0.432c-0.298,0.174-0.615,0.314-0.932,0.457c-0.207,0.093-0.406,0.202-0.62,0.283c-0.399,0.148-0.816,0.252-1.236,0.35c-0.15,0.035-0.292,0.09-0.444,0.118c-0.585,0.108-1.187,0.167-1.8,0.167c-5.557,0-10.076-4.521-10.076-10.077V98.688z M63.261,106.038c-0.179,0.233-0.353,0.471-0.541,0.698c-0.521,0.628-1.067,1.241-1.66,1.82c-0.32,0.32-0.621,0.661-0.88,1c-0.44,0.52-0.8,1.08-1.1,1.661c-0.62,1.18-0.98,2.479-1.04,3.8c-0.04,0.18-0.04,0.38-0.04,0.56v8.44c0,1.72-1.4,3.12-3.12,3.12H35.12c-1.72,0-3.12-1.399-3.12-3.12v-8.44c0-2.6-1.08-5.08-3.061-7.02c-4.84-4.72-7.359-11.3-6.879-18.04c0.64-9.58,7.44-17.68,16.34-20.4c1.8-0.561,3.7-0.88,5.64-0.96c0.32-0.02,0.62-0.02,0.939-0.02H45c12.68,0,23,10.32,23,23c0,1.82-0.22,3.601-0.64,5.32c-0.16,0.7-0.34,1.38-0.58,2.061c-0.264,0.784-0.582,1.547-0.93,2.296c-0.104,0.222-0.225,0.436-0.335,0.655c-0.256,0.505-0.528,1.003-0.823,1.489c-0.158,0.262-0.323,0.52-0.493,0.776C63.903,105.177,63.588,105.611,63.261,106.038z M79.334,59.297c0.08,0.054,0.149,0.119,0.227,0.175c0.155,0.112,0.311,0.216,0.459,0.364c0.301,0.235,0.585,0.489,0.856,0.752c0.033,0.033,0.067,0.065,0.1,0.099c0.22,0.22,0.426,0.453,0.625,0.691c0.097,0.118,0.192,0.237,0.284,0.358c0.139,0.182,0.272,0.368,0.399,0.558c0.125,0.189,0.243,0.384,0.356,0.581c0.085,0.149,0.171,0.297,0.25,0.45c0.127,0.249,0.24,0.504,0.348,0.762c0.051,0.122,0.105,0.241,0.152,0.364c0.113,0.303,0.207,0.612,0.292,0.925c0.025,0.091,0.057,0.18,0.079,0.272c0.093,0.377,0.164,0.762,0.215,1.151c0.004,0.033,0.013,0.066,0.017,0.099c0.053,0.434,0.081,0.873,0.081,1.317c0,0.675-0.08,1.33-0.199,1.971c-0.068,0.375-0.191,0.727-0.298,1.087c-0.088,0.294-0.161,0.595-0.273,0.879c-0.112,0.288-0.258,0.557-0.396,0.832c-0.162,0.326-0.325,0.65-0.519,0.957c-0.148,0.235-0.316,0.458-0.482,0.68c-0.232,0.31-0.474,0.611-0.737,0.893c-0.178,0.193-0.364,0.377-0.556,0.556c-0.296,0.275-0.609,0.53-0.935,0.771c-0.199,0.148-0.398,0.296-0.609,0.43c-0.362,0.23-0.744,0.429-1.133,0.616c-0.206,0.099-0.406,0.208-0.619,0.294c-0.455,0.184-0.932,0.32-1.415,0.44c-0.17,0.042-0.333,0.105-0.506,0.139c-0.673,0.133-1.366,0.21-2.077,0.21c-1.063,0-1.924,0.86-1.924,1.922c0,0.794,0.481,1.473,1.167,1.767c0.002,0.002,0.004,0.004,0.007,0.005c0.227,0.095,0.477,0.147,0.738,0.148c0.003,0,0.006,0.002,0.009,0.002c0.001,0,0.001,0,0.002,0c0.589,0,1.168-0.046,1.739-0.114c0.07-0.009,0.139-0.022,0.209-0.032c1.989-0.267,3.849-0.934,5.502-1.921c0.036-0.021,0.072-0.044,0.108-0.066c1.183-0.719,2.253-1.6,3.185-2.614c0.003-0.004,0.008-0.007,0.011-0.011v16.075c-0.125-0.046-0.253-0.068-0.38-0.105c-0.413-0.122-0.831-0.2-1.253-0.229c-0.1-0.007-0.199-0.026-0.298-0.029c-0.189-0.003-0.375,0.019-0.563,0.033c-0.167,0.012-0.333,0.021-0.499,0.048c-0.168,0.027-0.331,0.069-0.496,0.111c-0.184,0.045-0.364,0.096-0.542,0.16c-0.148,0.052-0.292,0.111-0.436,0.176c-0.189,0.084-0.371,0.181-0.551,0.287c-0.125,0.073-0.25,0.144-0.371,0.226c-0.195,0.134-0.377,0.287-0.557,0.446c-0.091,0.082-0.188,0.153-0.274,0.24c-0.259,0.259-0.502,0.542-0.716,0.856c-0.45,0.661-0.427,1.5-0.016,2.124c0.136,0.209,0.315,0.396,0.536,0.545c0.045,0.03,0.098,0.034,0.144,0.06c0.104,0.059,0.207,0.124,0.316,0.152c0.027,0.01,0.057,0.007,0.085,0.017c0.115,0.033,0.226,0.055,0.344,0.065c0.144,0.018,0.283,0.017,0.425,0c0.067-0.008,0.131-0.013,0.196-0.028c0.202-0.044,0.391-0.121,0.569-0.229c0.018-0.011,0.037-0.016,0.054-0.028c0.208-0.135,0.398-0.3,0.546-0.518c0.166-0.257,0.392-0.45,0.643-0.606c0.191-0.114,0.396-0.2,0.611-0.247c0.044-0.009,0.089-0.011,0.134-0.017c0.196-0.029,0.395-0.029,0.593-0.001c0.047,0.007,0.095,0.006,0.142,0.017c0.247,0.053,0.489,0.145,0.711,0.294c0.566,0.383,0.902,1.019,0.902,1.703v11.477c0,0.009,0.001,0.018,0.001,0.026c-0.015,5.547-4.526,10.054-10.077,10.054c-0.6,0-1.18-0.074-1.75-0.174c-0.056-0.01-0.114-0.016-0.169-0.026c-0.26-0.041-0.52-0.14-0.78-0.22c-0.34-0.1-0.68-0.18-1.02-0.32c-0.3-0.12-0.58-0.259-0.86-0.42c-0.26-0.12-0.52-0.26-0.78-0.42c-0.28-0.18-0.54-0.38-0.8-0.6c-0.206-0.15-0.412-0.318-0.617-0.487c-0.265-0.243-0.508-0.508-0.746-0.777c-0.179-0.199-0.357-0.417-0.517-0.636c-0.075-0.097-0.144-0.209-0.217-0.314c-0.109-0.158-0.22-0.313-0.32-0.478c-0.083-0.138-0.159-0.281-0.236-0.422c-0.062-0.121-0.128-0.237-0.187-0.365c-0.15-0.281-0.28-0.584-0.395-0.901c-0.052-0.14-0.093-0.283-0.139-0.425c-0.043-0.14-0.096-0.275-0.127-0.413c-0.045-0.136-0.076-0.284-0.112-0.428c-0.031-0.133-0.067-0.264-0.093-0.398c-0.1-0.54-0.185-1.087-0.195-1.654c1.38-1.38,2.601-2.86,3.641-4.44c0.3,0.68,0.98,1.16,1.76,1.16c1.06,0,1.92-0.86,1.92-1.92c0-1.62-0.34-3.18-0.94-4.6c1.1-2.96,1.68-6.14,1.68-9.4c0-15.26-12.78-27.64-28.12-26.98c-0.28,0.02-0.54,0.02-0.82,0.061c-0.354-0.382-0.641-0.807-0.937-1.225c-0.15-0.216-0.327-0.414-0.463-0.638c-0.15-0.246-0.253-0.514-0.385-0.77c-0.213-0.42-0.439-0.834-0.601-1.277c-0.046-0.126-0.068-0.26-0.11-0.387c-0.194-0.595-0.367-1.199-0.465-1.824c0,0-0.02-0.021,0-0.041c-0.12-0.62-0.18-1.26-0.18-1.92c0-0.531,0.045-1.055,0.115-1.573c0.025-0.188,0.066-0.373,0.101-0.559c0.058-0.317,0.125-0.631,0.208-0.941c0.064-0.236,0.135-0.469,0.213-0.699c0.077-0.229,0.165-0.455,0.254-0.679c0.112-0.276,0.225-0.553,0.357-0.82c0.049-0.101,0.109-0.196,0.161-0.296c0.816-1.533,1.95-2.895,3.348-3.97c0.181,0.551,0.405,1.109,0.685,1.675c0.015,0.03,0.026,0.06,0.041,0.089c0.287,0.568,0.612,1.137,1.018,1.7c0.008,0.011,0.011,0.022,0.019,0.033c0.001,0.001,0.003,0.002,0.004,0.004c0.431,0.592,0.918,1.124,1.428,1.626c0.128,0.127,0.255,0.252,0.388,0.373c0.507,0.459,1.039,0.884,1.604,1.255c0.125,0.083,0.257,0.149,0.385,0.227c0.507,0.308,1.031,0.578,1.573,0.813c0.138,0.06,0.271,0.127,0.412,0.182c0.655,0.257,1.329,0.454,2.018,0.601c0.044,0.009,0.084,0.03,0.129,0.039c0.211,0.046,0.427,0.068,0.641,0.102c0.14,0.021,0.277,0.05,0.418,0.066c0.479,0.057,0.959,0.092,1.441,0.092c0.352,0,0.712-0.038,1.07-0.07c0.15-0.013,0.3-0.009,0.45-0.027c0.203-0.025,0.396-0.085,0.596-0.119c0.025,0.016,0.046,0.036,0.072,0.051c0.01,0.01,0.025,0.013,0.031,0.025c0.92,0.585,1.642,1.364,2.172,2.243c0.054,0.089,0.114,0.175,0.163,0.266c0.121,0.223,0.22,0.456,0.314,0.689c0.06,0.146,0.117,0.293,0.167,0.443c0.071,0.216,0.132,0.436,0.182,0.657c0.041,0.184,0.068,0.37,0.094,0.555c0.028,0.207,0.059,0.412,0.068,0.62c0.011,0.232-0.004,0.465-0.017,0.698c-0.01,0.171-0.004,0.342-0.026,0.513c-0.05,0.381-0.138,0.76-0.254,1.135c-0.158,0.467-0.35,0.934-0.603,1.382c-0.129,0.228-0.202,0.472-0.231,0.718c-0.018,0.136,0.012,0.268,0.023,0.402c0.009,0.098-0.003,0.196,0.021,0.291c0.05,0.211,0.146,0.404,0.264,0.588c0.011,0.017,0.014,0.036,0.026,0.053c0.114,0.166,0.267,0.3,0.434,0.426c0.032,0.024,0.05,0.06,0.083,0.083c0.021,0.04,0.061,0.06,0.101,0.08c0.3,0.16,0.62,0.26,0.96,0.26c0.398,0,0.781-0.145,1.108-0.386c0.215-0.154,0.411-0.343,0.551-0.588c0.019-0.033,0.027-0.069,0.045-0.102c0.313-0.554,0.562-1.125,0.765-1.706c0.079-0.225,0.129-0.453,0.191-0.68c0.072-0.261,0.168-0.517,0.22-0.779c0-0.02,0-0.02,0-0.04c0.02-0.102,0.017-0.205,0.033-0.307c0.055-0.339,0.087-0.675,0.109-1.016c0.018-0.271,0.024-0.54,0.02-0.81c-0.004-0.386-0.019-0.766-0.064-1.148c-0.021-0.169-0.057-0.334-0.085-0.503c-0.337-2.032-1.247-3.935-2.67-5.489c-0.037-0.04-0.064-0.087-0.102-0.126c2.456-1.415,4.417-3.626,5.543-6.341c0.008,0.001,0.015,0,0.022,0.001c0.709,0.128,1.399,0.184,2.063,0.184c0.563,0,1.101-0.046,1.621-0.116c0.062-0.008,0.118-0.023,0.179-0.032c0.883-0.131,1.698-0.337,2.418-0.585c0.251-0.084,0.479-0.175,0.705-0.265c0.08-0.033,0.17-0.062,0.247-0.095c0.618-0.259,1.139-0.527,1.541-0.753c0.274-0.155,0.47-0.283,0.622-0.389c0.107-0.071,0.199-0.134,0.247-0.167c0.264-0.189,0.443-0.441,0.578-0.714c0.315-0.618,0.304-1.372-0.127-1.97c-0.281-0.391-0.688-0.625-1.122-0.728c-0.526-0.129-1.095-0.057-1.567,0.284c-0.11,0.079-1.96,1.337-4.46,1.604c-1.141,0.12-2.404,0.053-3.724-0.458c-3.002-1.17-4.344-3.814-4.684-4.597c-0.029-0.067-0.085-0.111-0.12-0.173c-0.478-0.846-1.508-1.224-2.404-0.832c-0.297,0.127-0.524,0.334-0.713,0.569c-0.438,0.539-0.587,1.286-0.291,1.966c0.083,0.193,0.195,0.428,0.327,0.687c0.008,0.016,0.019,0.033,0.027,0.049c0.127,0.245,0.277,0.512,0.451,0.796c0.007,0.012,0.011,0.021,0.019,0.033c0.017,0.028,0.043,0.06,0.061,0.088c0.172,0.275,0.365,0.559,0.583,0.854c0.081,0.111,0.169,0.219,0.258,0.331c0.201,0.254,0.419,0.506,0.657,0.764c0.101,0.109,0.199,0.214,0.307,0.323c0.291,0.293,0.611,0.577,0.954,0.857c0.08,0.064,0.149,0.13,0.23,0.194c0.453,0.351,0.94,0.685,1.484,0.988c-0.004,0.009-0.007,0.019-0.011,0.028c-0.458,1.005-1.069,1.914-1.799,2.685c-0.006,0.007-0.014,0.013-0.021,0.021c-0.313,0.329-0.655,0.626-1.013,0.905c-0.084,0.065-0.169,0.128-0.256,0.19c-0.287,0.208-0.59,0.393-0.899,0.565c-0.135,0.075-0.269,0.152-0.408,0.22c-0.287,0.141-0.587,0.255-0.889,0.363c-0.155,0.056-0.306,0.121-0.464,0.168c-0.454,0.134-0.919,0.239-1.396,0.294c-0.563,0.071-1.128,0.063-1.691,0.021c-1.982-0.154-3.901-0.987-5.409-2.343c-0.467-0.422-0.906-0.879-1.28-1.397c-0.071-0.097-0.124-0.195-0.189-0.292c-0.14-0.21-0.279-0.419-0.396-0.631c-0.074-0.134-0.134-0.268-0.199-0.402c-0.086-0.177-0.171-0.353-0.242-0.529c-0.064-0.158-0.121-0.315-0.175-0.472c-0.048-0.139-0.092-0.276-0.132-0.413c-0.051-0.174-0.099-0.348-0.139-0.518c-0.054-0.235-0.108-0.47-0.143-0.692c0.042-0.19,0.055-0.389,0.035-0.59c-0.04-0.38-0.06-0.78-0.06-1.16c0-0.728,0.076-1.438,0.199-2.131c0.039-0.221,0.107-0.433,0.158-0.65c0.109-0.463,0.23-0.92,0.39-1.361c0.089-0.244,0.196-0.479,0.3-0.716c0.171-0.39,0.358-0.77,0.567-1.136c0.137-0.239,0.28-0.473,0.432-0.701c0.222-0.333,0.466-0.65,0.72-0.959c0.183-0.221,0.361-0.446,0.559-0.654c0.262-0.276,0.551-0.524,0.838-0.775c0.229-0.199,0.446-0.411,0.691-0.593c0.273-0.204,0.575-0.368,0.865-0.549c0.627-0.387,1.289-0.721,1.989-0.99c0.207-0.081,0.403-0.179,0.616-0.248c0.21-0.076,0.427-0.132,0.645-0.184c0.608-0.162,1.226-0.305,1.871-0.372c0.78-0.08,1.44-0.62,1.66-1.36c0.169-0.585,0.393-1.145,0.645-1.688c0.063-0.135,0.133-0.264,0.2-0.396c0.213-0.418,0.45-0.822,0.708-1.209c0.078-0.117,0.153-0.236,0.235-0.35c0.687-0.954,1.507-1.797,2.43-2.511c0.126-0.097,0.257-0.186,0.387-0.277c0.352-0.25,0.716-0.482,1.093-0.694c0.15-0.085,0.299-0.172,0.453-0.251c0.473-0.241,0.959-0.455,1.462-0.632c0.043-0.015,0.084-0.038,0.128-0.052c0.029-0.009,0.07-0.02,0.106-0.029c0.134-0.044,0.277-0.065,0.413-0.104c0.464-0.141,0.935-0.268,1.421-0.349c0.622-0.101,1.255-0.158,1.899-0.158c0.605,0,1.199,0.058,1.784,0.147c0.093,0.014,0.188,0.026,0.28,0.043c0.587,0.103,1.164,0.242,1.721,0.426c0.016,0.005,0.03,0.011,0.045,0.017c0.583,0.196,1.148,0.435,1.689,0.715c0.007,0.003,0.014,0.006,0.021,0.009c0.538,0.28,1.051,0.601,1.538,0.955c0.03,0.021,0.059,0.044,0.088,0.066c0.957,0.709,1.805,1.556,2.517,2.511c0.031,0.042,0.063,0.083,0.094,0.125c0.344,0.474,0.657,0.972,0.93,1.494c0.018,0.034,0.032,0.069,0.049,0.103c0.254,0.496,0.472,1.012,0.656,1.544c0.02,0.058,0.044,0.114,0.063,0.172c0.177,0.535,0.31,1.088,0.41,1.652c0.02,0.113,0.035,0.228,0.052,0.341c0.083,0.566,0.139,1.142,0.14,1.731c0,0.01-0.001,0.02-0.001,0.029v25.216c-0.382-0.416-0.785-0.814-1.217-1.186c-0.036-0.031-0.077-0.057-0.113-0.087c-0.402-0.341-0.817-0.67-1.26-0.969c-0.349-0.235-0.746-0.307-1.137-0.294c-0.159,0.004-0.311,0.019-0.463,0.063c-0.419,0.119-0.808,0.358-1.07,0.749C78.223,57.508,78.453,58.703,79.334,59.297z M84,9.402l0.109-7.43c0.016-1.104,0.928-2.013,2.029-1.971c1.105,0.017,1.986,0.925,1.971,2.029L88,9.46c-0.016,1.095-0.908,1.971-2,1.971c-0.01,0-0.02,0-0.029,0C84.865,11.415,83.984,10.506,84,9.402z M148.9,102.011c-0.346,0.712-1.059,1.125-1.801,1.125c-0.293,0-0.592-0.064-0.873-0.201l-6.682-3.251c-0.994-0.483-1.406-1.68-0.924-2.674c0.482-0.993,1.68-1.407,2.674-0.923l6.682,3.251C148.971,99.821,149.383,101.018,148.9,102.011z M115.271,17.205l3.811-6.379c0.566-0.948,1.797-1.261,2.742-0.691c0.949,0.566,1.258,1.794,0.691,2.742l-3.811,6.379c-0.375,0.627-1.037,0.975-1.719,0.975c-0.35,0-0.703-0.091-1.023-0.283C115.014,19.38,114.705,18.153,115.271,17.205z M137.682,42.319c-0.539-0.964-0.193-2.184,0.771-2.722l6.488-3.619c0.965-0.537,2.184-0.193,2.721,0.772c0.539,0.965,0.193,2.184-0.771,2.722l-6.488,3.62c-0.309,0.171-0.643,0.252-0.973,0.252C138.729,43.344,138.047,42.976,137.682,42.319z M153.973,70.822c-0.016,1.095-0.908,1.971-2,1.971c-0.01,0-0.02,0-0.029,0l-7.43-0.11c-1.105-0.016-1.986-0.924-1.971-2.029c0.016-1.104,0.877-1.957,2.029-1.971l7.43,0.11C153.107,68.809,153.988,69.717,153.973,70.822z M10,93.136H2c-1.105,0-2-0.895-2-2c0-1.104,0.895-2,2-2h8c1.105,0,2,0.896,2,2C12,92.241,11.105,93.136,10,93.136z M17.121,75.025c-0.371,0.642-1.043,1-1.734,1c-0.34,0-0.684-0.086-0.998-0.268l-6.928-4c-0.957-0.553-1.285-1.777-0.732-2.732c0.553-0.958,1.775-1.284,2.732-0.733l6.928,4C17.346,72.846,17.674,74.069,17.121,75.025z M26.344,53.972l4,6.928c0.553,0.956,0.225,2.179-0.732,2.732c-0.314,0.181-0.658,0.268-0.998,0.268c-0.691,0-1.363-0.358-1.734-1l-4-6.928c-0.553-0.956-0.225-2.18,0.732-2.732C24.563,52.688,25.789,53.014,26.344,53.972z M15.621,107.65c0.553,0.956,0.225,2.179-0.732,2.732l-6.928,4c-0.314,0.182-0.658,0.268-0.998,0.268c-0.691,0-1.363-0.358-1.734-1c-0.553-0.957-0.225-2.18,0.732-2.733l6.928-4C13.842,106.366,15.068,106.692,15.621,107.65z M22.031,42.714c6.766-15.17,18.74-27.492,33.717-34.698c0.996-0.475,2.189-0.06,2.67,0.935c0.479,0.995,0.061,2.19-0.936,2.67c-14.125,6.795-25.418,18.417-31.799,32.722c-0.332,0.745-1.063,1.187-1.828,1.187c-0.271,0-0.549-0.057-0.813-0.175C22.033,44.906,21.58,43.723,22.031,42.714z M139.518,113.089c0.848,0.707,0.963,1.969,0.254,2.817C126.402,131.94,106.803,141.136,86,141.136c-1.105,0-2-0.896-2-2s0.895-2,2-2c19.613,0,38.092-8.672,50.701-23.792C137.406,112.499,138.666,112.381,139.518,113.089z M82.084,139.136c0,1.155-0.938,2.093-2.092,2.093s-2.092-0.938-2.092-2.093c0-1.154,0.938-2.093,2.092-2.093S82.084,137.982,82.084,139.136z M59.908,6.821c0-1.154,0.938-2.092,2.092-2.092s2.092,0.938,2.092,2.092c0,1.154-0.938,2.092-2.092,2.092S59.908,7.976,59.908,6.821z M53,91.213c-3.818,0-6.924,3.105-6.924,6.923v3.077h-2.152v-3.077c0-3.817-3.105-6.923-6.924-6.923s-6.924,3.105-6.924,6.923c0,3.818,3.105,6.923,6.924,6.923h1.125h1.951v16.077c0,1.063,0.861,1.923,1.924,1.923s1.924-0.86,1.924-1.923v-16.077h2.152v16.077c0,1.063,0.861,1.923,1.924,1.923s1.924-0.86,1.924-1.923v-16.077H53c3.818,0,6.924-3.105,6.924-6.923C59.924,94.319,56.818,91.213,53,91.213z M40.076,101.213h-1.951H37c-1.697,0-3.076-1.38-3.076-3.077c0-1.696,1.379-3.077,3.076-3.077s3.076,1.381,3.076,3.077V101.213z M53,101.213h-3.076v-3.077c0-1.696,1.379-3.077,3.076-3.077s3.076,1.381,3.076,3.077C56.076,99.833,54.697,101.213,53,101.213z M59.924,135.136c0,1.063-0.861,1.923-1.924,1.923H32c-1.063,0-1.924-0.86-1.924-1.923s0.861-1.923,1.924-1.923h26C59.063,133.213,59.924,134.074,59.924,135.136z M57.924,141.136c0,1.063-0.861,1.923-1.924,1.923H34c-1.063,0-1.924-0.86-1.924-1.923s0.861-1.923,1.924-1.923h22C57.063,139.213,57.924,140.074,57.924,141.136z M50,145.213H40c-1.063,0-1.924,0.86-1.924,1.923v1c0,3.818,3.107,6.923,6.924,6.923s6.924-3.105,6.924-6.923v-1C51.924,146.074,51.063,145.213,50,145.213z M45,151.213c-1.375,0-2.543-0.907-2.936-2.154h5.871C47.543,150.306,46.375,151.213,45,151.213z"/>
</svg>
