<?xml version="1.0" encoding="utf-8"?>
<!-- Generator: Adobe Illustrator 16.0.0, SVG Export Plug-In . SVG Version: 6.00 Build 0)  -->

<svg x="0px" y="0px" width="30.247px" height="43.818px" viewBox="0 0 30.247 43.818" enable-background="new 0 0 30.247 43.818">
	<path fill="#a2a4a3" d="M22.18,39.863H8.067c-0.996,0-1.802-0.806-1.802-1.801c0-0.994,0.806-1.801,1.802-1.801H22.18c0.996,0,1.802,0.807,1.802,1.801C23.981,39.057,23.176,39.863,22.18,39.863L22.18,39.863zM20.474,43.818H9.772c-0.996,0-1.801-0.807-1.801-1.801c0-0.995,0.805-1.802,1.801-1.802h10.701c0.996,0,1.802,0.807,1.802,1.802C22.275,43.011,21.47,43.818,20.474,43.818L20.474,43.818zM11.897,33.81L9.618 14.991 11.405 14.774 13.685 33.594 11.897 33.81 zM18.35,33.81L16.562 33.594 18.842 14.774 20.629 14.991 18.35 33.81 zM18.328,19.51c-0.552,0-0.895-0.32-1.112-0.648c-0.218,0.329-0.559,0.648-1.111,0.648c-0.545,0-0.886-0.316-1.104-0.641c-0.218,0.326-0.556,0.641-1.104,0.641c-0.545,0-0.883-0.313-1.101-0.638c-0.219,0.325-0.557,0.638-1.102,0.638c-0.862,0-1.206-0.781-1.375-1.157c-0.04-0.087-0.097-0.217-0.124-0.257c0.039,0.055,0.189,0.17,0.395,0.17v-1.801c0.545,0,0.886,0.313,1.104,0.639c0.214-0.325,0.555-0.639,1.102-0.639c0.545,0,0.882,0.314,1.101,0.639c0.218-0.325,0.556-0.639,1.102-0.639c0.553,0,0.893,0.318,1.107,0.646c0.218-0.328,0.56-0.646,1.111-0.646c0.553,0,0.895,0.32,1.112,0.649c0.219-0.329,0.56-0.649,1.112-0.649v1.801c0.203,0,0.352-0.113,0.393-0.168c-0.026,0.041-0.087,0.172-0.126,0.257C19.538,18.729,19.19,19.51,18.328,19.51L18.328,19.51zM21.928,35.852H8.368c-0.495,0-0.967-0.206-1.309-0.567c-0.341-0.36-0.517-0.847-0.488-1.342c0.074-1.264-0.1-3.653-0.873-4.679C0.066,22.006,0,15.191,0,15.124C0,6.784,6.785,0,15.123,0c8.341,0,15.124,6.784,15.124,15.124c0,0.067-0.064,6.884-5.717,14.161c-0.774,1.032-0.88,3.574-0.805,4.639c0.034,0.498-0.142,0.988-0.483,1.354C22.903,35.643,22.427,35.852,21.928,35.852L21.928,35.852z M10.147,32.249h9.982c0.091-1.545,0.433-3.673,1.533-5.146c4.763-6.131,4.98-11.929,4.98-11.986c0-6.345-5.167-11.514-11.521-11.514c-6.353,0-11.521,5.169-11.521,11.522c0,0.049,0.226,5.852,4.961,11.952C9.681,28.563,10.044,30.703,10.147,32.249L10.147,32.249z"/>
</svg>
