<?xml version="1.0" encoding="utf-8"?>
<!-- Generator: Adobe Illustrator 16.0.0, SVG Export Plug-In . SVG Version: 6.00 Build 0)  -->

<svg x="0px" y="0px" width="29.959px" height="34.318px" viewBox="0 0 29.959 34.318" enable-background="new 0 0 29.959 34.318">
	<path fill="#002664" d="M24.75,10.744c-0.289,0-0.584-0.091-0.832-0.28c-0.61-0.46-0.729-1.328-0.271-1.937l2.634-3.484c0.459-0.61,1.328-0.73,1.937-0.27c0.61,0.46,0.731,1.328,0.27,1.937l-2.633,3.484C25.584,10.555,25.168,10.744,24.75,10.744L24.75,10.744zM14.981,34.318C6.72,34.318,0,27.599,0,19.339c0-8.26,6.72-14.98,14.981-14.98c8.259,0,14.978,6.72,14.978,14.98C29.959,27.599,23.24,34.318,14.981,34.318L14.981,34.318z M14.981,7.125c-6.736,0-12.216,5.479-12.216,12.214c0,6.734,5.479,12.214,12.216,12.214c6.732,0,12.212-5.48,12.212-12.214C27.193,12.604,21.714,7.125,14.981,7.125L14.981,7.125zM14.981,20.722c-0.765,0-1.383-0.62-1.383-1.383V10.14c0-0.764,0.618-1.383,1.383-1.383c0.764,0,1.382,0.619,1.382,1.383v9.199C16.363,20.102,15.745,20.722,14.981,20.722L14.981,20.722zM18.743,2.766h-7.524c-0.764,0-1.383-0.619-1.383-1.383S10.455,0,11.219,0h7.524c0.765,0,1.383,0.619,1.383,1.383S19.508,2.766,18.743,2.766L18.743,2.766zM14.981,7.125c-0.765,0-1.383-0.619-1.383-1.383V2.535c0-0.764,0.618-1.383,1.383-1.383c0.764,0,1.382,0.619,1.382,1.383v3.207C16.363,6.505,15.745,7.125,14.981,7.125L14.981,7.125z"/>
</svg>
