<?xml version="1.0" encoding="utf-8"?>
<!-- Generator: Adobe Illustrator 16.0.0, SVG Export Plug-In . SVG Version: 6.00 Build 0)  -->

<svg x="0px" y="0px" width="154px" height="154.141px" viewBox="0 0 154 154.141">
<path fill="#e1f2fb" d="M118.044,88.128c-0.66-3.052-1.862-5.915-3.573-8.51c-0.102-0.18-0.207-0.32-0.288-0.423c-0.494-0.727-1.008-1.41-1.533-2.036c-0.584-0.693-1.209-1.354-1.833-1.942c-2.197-2.144-4.763-3.851-7.628-5.075l-1.782-0.762l-10.05,21.605l-2.242,4.778l27.122-2.401l2.508-0.185l-0.216-2.053C118.406,89.956,118.249,88.992,118.044,88.128z M95.681,91.175l7.682-16.515c1.716,0.924,3.283,2.074,4.687,3.443c0.538,0.507,1.057,1.057,1.54,1.629c0.449,0.536,0.895,1.131,1.326,1.77l0.175,0.254c1.46,2.198,2.484,4.626,3.054,7.255c0.04,0.167,0.077,0.338,0.112,0.515L95.681,91.175z M80,48c0,1.101-0.9,2-2,2H54c-1.1,0-2-0.899-2-2c0-1.1,0.9-2,2-2h24C79.1,46,80,46.9,80,48z M54,36h42c1.1,0,2,0.9,2,2c0,1.101-0.9,2-2,2H54c-1.1,0-2-0.899-2-2C52,36.9,52.9,36,54,36z M146,139V51c0-3.859-3.14-7-7-7h-19V19c0-3.859-3.14-7-7-7H99.2c-1.22-2.359-3.68-4-6.54-4H90V5.34C90,2.4,87.6,0,84.66,0H69.34C66.4,0,64,2.4,64,5.34V8h-2.66c-2.86,0-5.32,1.641-6.54,4H39c-3.86,0-7,3.141-7,7v37H21c-3.86,0-7,3.141-7,7v5H6.16C2.76,68,0,70.76,0,74.141V148c0,3.381,2.76,6.141,6.16,6.141h47.68c3.4,0,6.16-2.76,6.16-6.141v-2h79C142.86,146,146,142.86,146,139z M100,16h13c1.66,0,3,1.34,3,3v25h-4V22c0-1.1-0.9-2-2-2h-10V16z M68,5.34C68,4.601,68.6,4,69.34,4h15.32C85.4,4,86,4.601,86,5.34v5.32C86,11.4,85.4,12,84.66,12H69.34C68.6,12,68,11.4,68,10.66V5.34z M58,15.34c0-0.479,0.1-0.939,0.28-1.34c0.52-1.18,1.7-2,3.06-2h2.84c0.18,0.74,0.54,1.42,1,2c0.98,1.221,2.48,2,4.16,2h15.32c1.68,0,3.18-0.779,4.16-2c0.46-0.58,0.82-1.26,1-2h2.84c1.36,0,2.54,0.82,3.06,2C95.9,14.4,96,14.86,96,15.34V24H58V15.34z M56,28h42c1.1,0,2-0.899,2-2v-2h8v20h-1c-3.72,0-6.76,2.9-6.98,6.561C100,50.7,100,50.86,100,51v2c0,1.66-1.34,3-3,3H44V24h10v2C54,27.101,54.9,28,56,28z M36,19c0-1.66,1.34-3,3-3h15v4H42c-1.1,0-2,0.9-2,2v34h-4V19z M4,74.141C4,72.96,4.96,72,6.16,72h47.68c1.2,0,2.16,0.96,2.16,2.141v10.854V94H4V74.141z M60,86.495c0.499-0.557,0.947-1.02,1.394-1.44c4.915-4.773,11.378-7.402,18.2-7.402c1.518,0,3.052,0.134,4.563,0.398c1.268,0.221,2.557,0.557,3.851,1.003l-12.541,26.985l30.363-2.705c0.034,1.471-0.055,2.933-0.267,4.362l-0.107,0.689c-0.075,0.391-0.149,0.763-0.254,1.211c-0.147,0.713-0.288,1.26-0.458,1.771l-0.036,0.12c-0.143,0.541-0.345,1.133-0.622,1.815c-0.461,1.243-1.047,2.489-1.729,3.684c-0.455,0.774-0.819,1.344-1.205,1.882c-0.467,0.682-0.924,1.274-1.426,1.85c-4.987,5.979-12.304,9.408-20.073,9.408c-1.514,0-3.043-0.134-4.544-0.396c-5.205-0.918-9.948-3.334-13.713-6.983c-0.5-0.487-0.967-0.974-1.394-1.451V86.495z M56,122H32V98h24V122z M28,150.141H6.16c-1.2,0-2.16-0.96-2.16-2.141v-22h24V150.141z M28,122H4V98h24V122z M56,148c0,1.181-0.96,2.141-2.16,2.141H32V126h24V148z M60,126.869c4.096,3.507,9.038,5.853,14.415,6.801c1.73,0.304,3.492,0.457,5.236,0.457c8.959,0,17.395-3.953,23.113-10.81c0.576-0.658,1.127-1.373,1.659-2.149c0.435-0.605,0.861-1.27,1.393-2.176c0.802-1.403,1.481-2.849,1.996-4.238c0.309-0.76,0.56-1.494,0.745-2.182c0.21-0.642,0.389-1.331,0.548-2.11c0.107-0.45,0.193-0.877,0.291-1.397l0.122-0.772c0.355-2.403,0.413-4.869,0.172-7.327l-0.193-1.972l-27.483,2.448l11.389-24.508l-1.895-0.813c-2.221-0.951-4.463-1.628-6.663-2.011c-1.737-0.304-3.503-0.458-5.251-0.458c-7.248,0-14.139,2.577-19.593,7.268v-6.779C60,70.76,57.24,68,53.84,68H18v-5c0-1.66,1.34-3,3-3h76c3.86,0,7-3.14,7-7v-2c0-0.359,0.06-0.7,0.2-1.02c0.4-1.16,1.5-1.98,2.8-1.98h32c1.66,0,3,1.34,3,3v88c0,1.66-1.34,3-3,3H60V126.869z M8,110c0-1.104,0.895-2,2-2h4v-3.837c0-1.104,0.895-2,2-2s2,0.896,2,2V108h4c1.105,0,2,0.896,2,2s-0.895,2-2,2h-4v4.163c0,1.104-0.895,2-2,2s-2-0.896-2-2V112h-4C8.895,112,8,111.104,8,110z M10.344,141.07l2.828-2.828l-2.828-2.828c-0.781-0.781-0.781-2.047,0-2.828s2.047-0.781,2.828,0L16,135.414l2.828-2.828c0.781-0.781,2.047-0.781,2.828,0s0.781,2.047,0,2.828l-2.828,2.828l2.828,2.828c0.781,0.781,0.781,2.047,0,2.828c-0.391,0.391-0.902,0.586-1.414,0.586s-1.023-0.195-1.414-0.586L16,141.07l-2.828,2.828c-0.391,0.391-0.902,0.586-1.414,0.586s-1.023-0.195-1.414-0.586C9.563,143.117,9.563,141.852,10.344,141.07z M36,110c0-1.104,0.895-2,2-2h12c1.105,0,2,0.896,2,2s-0.895,2-2,2H38C36.895,112,36,111.104,36,110z M36,134c0-1.104,0.895-2,2-2h12c1.105,0,2,0.896,2,2s-0.895,2-2,2H38C36.895,136,36,135.104,36,134z M36,142c0-1.104,0.895-2,2-2h12c1.105,0,2,0.896,2,2s-0.895,2-2,2H38C36.895,144,36,143.104,36,142z M50,76H10c-1.1,0-2,0.9-2,2v10c0,1.101,0.9,2,2,2h40c1.1,0,2-0.899,2-2V78C52,76.9,51.1,76,50,76z M48,86H12v-6h36V86z M154,76v63c0,8.271-6.729,15-15,15h-27c-1.105,0-2-0.896-2-2s0.895-2,2-2h27c6.064,0,11-4.935,11-11V76c0-1.104,0.895-2,2-2S154,74.896,154,76z M6,63c0-8.271,6.729-15,15-15c1.105,0,2,0.896,2,2s-0.895,2-2,2c-6.064,0-11,4.935-11,11c0,1.104-0.895,2-2,2S6,64.104,6,63z M24.06,49.84c0-1.159,0.94-2.08,2.1-2.08c1.16,0,2.08,0.921,2.08,2.08c0,1.16-0.92,2.101-2.08,2.101C25,51.94,24.06,51,24.06,49.84z M107.94,152c0,1.16-0.94,2.101-2.1,2.101c-1.16,0-2.08-0.94-2.08-2.101s0.92-2.1,2.08-2.1C107,149.9,107.94,150.84,107.94,152z"/>
</svg>
