<?xml version="1.0" encoding="utf-8"?>
<!-- Generator: Adobe Illustrator 16.0.0, SVG Export Plug-In . SVG Version: 6.00 Build 0)  -->
<svg  x="0px" y="0px" width="17.469px" height="17.468px" viewBox="0 0 17.469 17.468" enable-background="new 0 0 17.469 17.468"><path fill="#4F453C" d="M1,17.468c-0.256,0-0.512-0.098-0.707-0.293c-0.391-0.391-0.391-1.023,0-1.414L15.762,0.293c0.391-0.391,1.023-0.391,1.414,0s0.391,1.023,0,1.414L1.707,17.175C1.512,17.37,1.256,17.468,1,17.468L1,17.468zM16.469,17.468c-0.256,0-0.512-0.098-0.707-0.293L0.293,1.708c-0.391-0.391-0.391-1.023,0-1.414s1.023-0.391,1.414,0l15.469,15.468c0.391,0.391,0.391,1.023,0,1.414C16.98,17.371,16.725,17.468,16.469,17.468L16.469,17.468z"/></svg>
